<svg xmlns="http://www.w3.org/2000/svg" width="50px" height="50px" viewBox="0 0 335973 98903" xmlns:xlink="http://www.w3.org/1999/xlink" shape-rendering="geometricPrecision" text-rendering="geometricPrecision" image-rendering="optimizeQuality" fill-rule="evenodd" clip-rule="evenodd"><defs><linearGradient id="id0" gradientUnits="userSpaceOnUse" x1="57213" y1="58491.6" x2="57456.4" y2="36814.2"><stop offset="0" stop-color="#6a3894"/><stop offset=".11" stop-color="#8a2f83"/><stop offset=".271" stop-color="#b4256c"/><stop offset=".412" stop-color="#d31c5d"/><stop offset=".529" stop-color="#e51e54"/><stop offset=".62" stop-color="#ec1e4f"/><stop offset="1" stop-color="#f8e47f"/></linearGradient><linearGradient id="id1" gradientUnits="userSpaceOnUse" x1="79296.6" y1="71396.9" x2="79598.3" y2="41859.4"><stop offset="0" stop-color="#6a3894"/><stop offset=".11" stop-color="#8a2f83"/><stop offset=".271" stop-color="#b4256c"/><stop offset=".412" stop-color="#d31c5d"/><stop offset=".529" stop-color="#e51e54"/><stop offset=".62" stop-color="#ec1e4f"/><stop offset="1" stop-color="#f8e47f"/></linearGradient><linearGradient id="id2" gradientUnits="userSpaceOnUse" xlink:href="#id1" x1="63396" y1="63952.9" x2="63630.8" y2="37856.8"/><linearGradient id="id3" gradientUnits="userSpaceOnUse" x1="71382.7" y1="67684.5" x2="71382.7" y2="39848.5"><stop offset="0" stop-color="#6a3894"/><stop offset=".11" stop-color="#8a2f83"/><stop offset=".271" stop-color="#b4256c"/><stop offset=".412" stop-color="#d31c5d"/><stop offset=".529" stop-color="#e51e54"/><stop offset=".62" stop-color="#ec1e4f"/><stop offset="1" stop-color="#f8e47f"/></linearGradient><linearGradient id="id4" gradientUnits="userSpaceOnUse" xlink:href="#id1" x1="86536.8" y1="73667.8" x2="86536.8" y2="44271.1"/><linearGradient id="id5" gradientUnits="userSpaceOnUse" x1="136746" y1="85895" x2="136746" y2="57278.7"><stop offset="0" stop-color="#f8e47f"/><stop offset=".11" stop-color="#f7db7c"/><stop offset=".349" stop-color="#f3c87b"/><stop offset=".522" stop-color="#f2c179"/><stop offset=".71" stop-color="#f6d17b"/><stop offset="1" stop-color="#f8e47f"/></linearGradient><linearGradient id="id6" gradientUnits="userSpaceOnUse" x1="109690" y1="81602.5" x2="109690" y2="50124.2"><stop offset="0" stop-color="#f8e47f"/><stop offset=".11" stop-color="#f7db7c"/><stop offset=".349" stop-color="#f3c87b"/><stop offset=".522" stop-color="#f2c179"/><stop offset=".71" stop-color="#f6d17b"/><stop offset="1" stop-color="#f8e47f"/></linearGradient><linearGradient id="id7" gradientUnits="userSpaceOnUse" x1="128811" y1="84724.1" x2="128811" y2="55457.3"><stop offset="0" stop-color="#f8e47f"/><stop offset=".11" stop-color="#f7db7c"/><stop offset=".349" stop-color="#f3c87b"/><stop offset=".522" stop-color="#f2c179"/><stop offset=".71" stop-color="#f6d17b"/><stop offset="1" stop-color="#f8e47f"/></linearGradient><linearGradient id="id8" gradientUnits="userSpaceOnUse" x1="152875" y1="87716" x2="152875" y2="61050.8"><stop offset="0" stop-color="#f8e47f"/><stop offset=".11" stop-color="#f7db7c"/><stop offset=".349" stop-color="#f3c87b"/><stop offset=".522" stop-color="#f2c179"/><stop offset=".71" stop-color="#f6d17b"/><stop offset="1" stop-color="#f8e47f"/></linearGradient><linearGradient id="id9" gradientUnits="userSpaceOnUse" x1="145135" y1="87846.1" x2="145135" y2="59099.6"><stop offset="0" stop-color="#f8e47f"/><stop offset=".11" stop-color="#f7db7c"/><stop offset=".349" stop-color="#f3c87b"/><stop offset=".522" stop-color="#f2c179"/><stop offset=".71" stop-color="#f6d17b"/><stop offset="1" stop-color="#f8e47f"/></linearGradient><linearGradient id="id10" gradientUnits="userSpaceOnUse" x1="94146" y1="76659.6" x2="94146" y2="46221.9"><stop offset="0" stop-color="#f8e47f"/><stop offset=".11" stop-color="#f7db7c"/><stop offset=".349" stop-color="#f3c87b"/><stop offset=".522" stop-color="#f2c179"/><stop offset=".71" stop-color="#f6d17b"/><stop offset="1" stop-color="#f8e47f"/></linearGradient><linearGradient id="id11" gradientUnits="userSpaceOnUse" x1="66310" y1="31914.1" x2="66310" y2="9800.97"><stop offset="0" stop-color="#f8e47f"/><stop offset=".11" stop-color="#f7db7c"/><stop offset=".349" stop-color="#f3c87b"/><stop offset=".522" stop-color="#f2c179"/><stop offset=".71" stop-color="#f6d17b"/><stop offset="1" stop-color="#f8e47f"/></linearGradient><linearGradient id="id12" gradientUnits="userSpaceOnUse" x1="58227.3" y1="28927.8" x2="51109.4" y2="6153.14"><stop offset="0" stop-color="#d4e5ee"/><stop offset=".071" stop-color="#cddfe8"/><stop offset=".18" stop-color="#b4cbd7"/><stop offset=".329" stop-color="#90abbb"/><stop offset=".49" stop-color="#5f8096"/><stop offset=".549" stop-color="#486d86"/><stop offset=".588" stop-color="#5d7e95"/><stop offset=".69" stop-color="#88a3b5"/><stop offset=".769" stop-color="#aac1ce"/><stop offset=".859" stop-color="#c1d5e0"/><stop offset=".929" stop-color="#d0e1ea"/><stop offset="1" stop-color="#d4e5ee"/></linearGradient><linearGradient id="id13" gradientUnits="userSpaceOnUse" x1="294747" y1="91648.1" x2="295086" y2="76369.7"><stop offset="0" stop-color="#f8e47f"/><stop offset=".11" stop-color="#f7db7c"/><stop offset=".349" stop-color="#f3c87b"/><stop offset=".522" stop-color="#f2c179"/><stop offset=".71" stop-color="#f6d17b"/><stop offset="1" stop-color="#f8e47f"/></linearGradient><linearGradient id="id14" gradientUnits="userSpaceOnUse" x1="309610" y1="89926.3" x2="309881" y2="77571.2"><stop offset="0" stop-color="#f8e47f"/><stop offset=".11" stop-color="#f7db7c"/><stop offset=".349" stop-color="#f3c87b"/><stop offset=".522" stop-color="#f2c179"/><stop offset=".71" stop-color="#f6d17b"/><stop offset="1" stop-color="#f8e47f"/></linearGradient><linearGradient id="id15" gradientUnits="userSpaceOnUse" xlink:href="#id9" x1="72093.8" y1="33101.1" x2="71192" y2="8873.97"/><linearGradient id="id16" gradientUnits="userSpaceOnUse" xlink:href="#id9" x1="120943" y1="83053.8" x2="119769" y2="53355.5"/><linearGradient id="id17" gradientUnits="userSpaceOnUse" xlink:href="#id9" x1="78376.3" y1="36103.1" x2="77136.6" y2="9384.08"/><linearGradient id="id18" gradientUnits="userSpaceOnUse" xlink:href="#id9" x1="102654" y1="80390" x2="101117" y2="47825"/><linearGradient id="id19" gradientUnits="userSpaceOnUse" xlink:href="#id12" x1="55760.5" y1="27617" x2="47592.1" y2="1480.37"/><linearGradient id="id20" gradientUnits="userSpaceOnUse" xlink:href="#id12" x1="58378.3" y1="29008.4" x2="51738.3" y2="7763.69"/><linearGradient id="id21" gradientUnits="userSpaceOnUse" xlink:href="#id1" x1="276585" y1="91300.9" x2="277218" y2="74896"/><linearGradient id="id22" gradientUnits="userSpaceOnUse" xlink:href="#id1" x1="259537" y1="93717.7" x2="260316" y2="73519.9"/><linearGradient id="id23" gradientUnits="userSpaceOnUse" x1="248605" y1="93355.1" x2="249396" y2="72841.8"><stop offset="0" stop-color="#6a3894"/><stop offset=".11" stop-color="#8a2f83"/><stop offset=".271" stop-color="#b4256c"/><stop offset=".412" stop-color="#d31c5d"/><stop offset=".529" stop-color="#e51e54"/><stop offset=".62" stop-color="#ec1e4f"/><stop offset="1" stop-color="#f8e47f"/></linearGradient><linearGradient id="id24" gradientUnits="userSpaceOnUse" xlink:href="#id1" x1="240073" y1="93152.9" x2="240888" y2="72002.9"/><linearGradient id="id25" gradientUnits="userSpaceOnUse" x1="230158" y1="93390.5" x2="231031" y2="70725.1"><stop offset="0" stop-color="#6a3894"/><stop offset=".11" stop-color="#8a2f83"/><stop offset=".271" stop-color="#b4256c"/><stop offset=".412" stop-color="#d31c5d"/><stop offset=".529" stop-color="#e51e54"/><stop offset=".62" stop-color="#ec1e4f"/><stop offset="1" stop-color="#f8e47f"/></linearGradient><linearGradient id="id26" gradientUnits="userSpaceOnUse" xlink:href="#id1" x1="220301" y1="94277.3" x2="221247" y2="69708"/><linearGradient id="id27" gradientUnits="userSpaceOnUse" xlink:href="#id9" x1="330133" y1="83322.8" x2="330201" y2="80272.4"/><linearGradient id="id28" gradientUnits="userSpaceOnUse" x1="330392" y1="81238.3" x2="330462" y2="78064"><stop offset="0" stop-color="#f8e47f"/><stop offset=".11" stop-color="#f7db7c"/><stop offset=".349" stop-color="#f3c87b"/><stop offset=".522" stop-color="#f2c179"/><stop offset=".71" stop-color="#f6d17b"/><stop offset="1" stop-color="#f8e47f"/></linearGradient><linearGradient id="id29" gradientUnits="userSpaceOnUse" x1="326328" y1="85647.2" x2="326461" y2="79638.8"><stop offset="0" stop-color="#f8e47f"/><stop offset=".11" stop-color="#f7db7c"/><stop offset=".349" stop-color="#f3c87b"/><stop offset=".522" stop-color="#f2c179"/><stop offset=".71" stop-color="#f6d17b"/><stop offset="1" stop-color="#f8e47f"/></linearGradient><linearGradient id="id30" gradientUnits="userSpaceOnUse" x1="322802" y1="86431.4" x2="322963" y2="79114.9"><stop offset="0" stop-color="#f8e47f"/><stop offset=".11" stop-color="#f7db7c"/><stop offset=".349" stop-color="#f3c87b"/><stop offset=".522" stop-color="#f2c179"/><stop offset=".71" stop-color="#f6d17b"/><stop offset="1" stop-color="#f8e47f"/></linearGradient><linearGradient id="id31" gradientUnits="userSpaceOnUse" x1="302010" y1="75423.8" x2="302262" y2="63977.3"><stop offset="0" stop-color="#f8e47f"/><stop offset=".11" stop-color="#f7db7c"/><stop offset=".349" stop-color="#f3c87b"/><stop offset=".522" stop-color="#f2c179"/><stop offset=".71" stop-color="#f6d17b"/><stop offset="1" stop-color="#f8e47f"/></linearGradient><linearGradient id="id32" gradientUnits="userSpaceOnUse" xlink:href="#id12" x1="51527.9" y1="27768" x2="44281" y2="4581.52"/><linearGradient id="id33" gradientUnits="userSpaceOnUse" xlink:href="#id1" x1="47284.2" y1="35100.6" x2="51906.2" y2="56042.9"/><linearGradient id="id34" gradientUnits="userSpaceOnUse" xlink:href="#id25" x1="267026" y1="90613.4" x2="267656" y2="74282.9"/><linearGradient id="id35" gradientUnits="userSpaceOnUse" xlink:href="#id1" x1="286077" y1="92316" x2="286717" y2="75701.9"/><linearGradient id="id36" gradientUnits="userSpaceOnUse" xlink:href="#id1" x1="158273" y1="61993.5" x2="162045" y2="88724.4"/><linearGradient id="id37" gradientUnits="userSpaceOnUse" xlink:href="#id1" x1="89882.2" y1="13354.8" x2="98279.9" y2="41107.5"/><linearGradient id="id38" gradientUnits="userSpaceOnUse" xlink:href="#id1" x1="81131.8" y1="11058.7" x2="91291.4" y2="38590.7"/><linearGradient id="id39" gradientUnits="userSpaceOnUse" xlink:href="#id12" x1="50189.5" y1="29300.7" x2="46009.5" y2="15926.2"/><linearGradient id="id40" gradientUnits="userSpaceOnUse" xlink:href="#id12" x1="47176" y1="54282.1" x2="40958.4" y2="34389.9"/><linearGradient id="id41" gradientUnits="userSpaceOnUse" xlink:href="#id1" x1="191720" y1="66570.7" x2="196367" y2="92992.4"/><linearGradient id="id42" gradientUnits="userSpaceOnUse" xlink:href="#id1" x1="174435" y1="64702.5" x2="180354" y2="91088.1"/><linearGradient id="id43" gradientUnits="userSpaceOnUse" xlink:href="#id1" x1="116702" y1="19623.6" x2="125441" y2="48496.7"/><linearGradient id="id44" gradientUnits="userSpaceOnUse" xlink:href="#id1" x1="106203" y1="16891.3" x2="115258" y2="46806.3"/><linearGradient id="id45" gradientUnits="userSpaceOnUse" xlink:href="#id1" x1="97264.4" y1="14283.8" x2="108067" y2="43560.8"/><linearGradient id="id46" gradientUnits="userSpaceOnUse" xlink:href="#id1" x1="163862" y1="62702.2" x2="176747" y2="91137.3"/><linearGradient id="id47" gradientUnits="userSpaceOnUse" x1="323057" y1="78487.6" x2="323490" y2="72750.6"><stop offset="0" stop-color="#6a3894"/><stop offset=".11" stop-color="#8a2f83"/><stop offset=".271" stop-color="#b4256c"/><stop offset=".412" stop-color="#d31c5d"/><stop offset=".529" stop-color="#e51e54"/><stop offset=".62" stop-color="#ec1e4f"/><stop offset="1" stop-color="#f8e47f"/></linearGradient><linearGradient id="id48" gradientUnits="userSpaceOnUse" x1="317043" y1="77816.7" x2="317666" y2="69518.9"><stop offset="0" stop-color="#6a3894"/><stop offset=".11" stop-color="#8a2f83"/><stop offset=".271" stop-color="#b4256c"/><stop offset=".412" stop-color="#d31c5d"/><stop offset=".529" stop-color="#e51e54"/><stop offset=".62" stop-color="#ec1e4f"/><stop offset="1" stop-color="#f8e47f"/></linearGradient><linearGradient id="id49" gradientUnits="userSpaceOnUse" x1="326493" y1="79459.9" x2="326817" y2="74769.8"><stop offset="0" stop-color="#6a3894"/><stop offset=".11" stop-color="#8a2f83"/><stop offset=".271" stop-color="#b4256c"/><stop offset=".412" stop-color="#d31c5d"/><stop offset=".529" stop-color="#e51e54"/><stop offset=".62" stop-color="#ec1e4f"/><stop offset="1" stop-color="#f8e47f"/></linearGradient><linearGradient id="id50" gradientUnits="userSpaceOnUse" xlink:href="#id1" x1="209785" y1="68413.7" x2="214593" y2="94140.9"/><linearGradient id="id51" gradientUnits="userSpaceOnUse" xlink:href="#id1" x1="133183" y1="25333.9" x2="141219" y2="51891.7"/><linearGradient id="id52" gradientUnits="userSpaceOnUse" xlink:href="#id1" x1="148265" y1="29110.7" x2="156184" y2="55268.9"/><linearGradient id="id53" gradientUnits="userSpaceOnUse" xlink:href="#id1" x1="124565" y1="22559.5" x2="134878" y2="50503.3"/><linearGradient id="id54" gradientUnits="userSpaceOnUse" xlink:href="#id1" x1="139907" y1="26861" x2="149974" y2="54136.6"/><linearGradient id="id55" gradientUnits="userSpaceOnUse" xlink:href="#id1" x1="195953" y1="39821" x2="219841" y2="66671.4"/><linearGradient id="id56" gradientUnits="userSpaceOnUse" xlink:href="#id1" x1="204578" y1="40940.3" x2="228905" y2="68283.5"/><linearGradient id="id57" gradientUnits="userSpaceOnUse" xlink:href="#id9" x1="302768" y1="91214.7" x2="300593" y2="76672.9"/><linearGradient id="id58" gradientUnits="userSpaceOnUse" xlink:href="#id1" x1="164628" y1="33351.2" x2="172340" y2="58833"/><linearGradient id="id59" gradientUnits="userSpaceOnUse" xlink:href="#id1" x1="170616" y1="35603.6" x2="179750" y2="60352.7"/><linearGradient id="id60" gradientUnits="userSpaceOnUse" xlink:href="#id1" x1="154111" y1="31733.2" x2="163606" y2="57458.8"/><linearGradient id="id61" gradientUnits="userSpaceOnUse" xlink:href="#id1" x1="197779" y1="66536.1" x2="209299" y2="95758.5"/><linearGradient id="id62" gradientUnits="userSpaceOnUse" xlink:href="#id1" x1="179243" y1="64608.9" x2="193885" y2="92872.9"/><linearGradient id="id63" gradientUnits="userSpaceOnUse" xlink:href="#id1" x1="229318" y1="46470.1" x2="245399" y2="70038"/><linearGradient id="id64" gradientUnits="userSpaceOnUse" xlink:href="#id9" x1="310464" y1="77004.9" x2="308766" y2="65648"/><linearGradient id="id65" gradientUnits="userSpaceOnUse" xlink:href="#id9" x1="317899" y1="88042.4" x2="316420" y2="78154.1"/><linearGradient id="id66" gradientUnits="userSpaceOnUse" xlink:href="#id12" x1="42932.7" y1="47559.9" x2="38437.7" y2="33177.8"/><linearGradient id="id67" gradientUnits="userSpaceOnUse" xlink:href="#id1" x1="242208" y1="48950.2" x2="248508" y2="69769"/><linearGradient id="id68" gradientUnits="userSpaceOnUse" xlink:href="#id1" x1="180765" y1="36304.9" x2="188461" y2="61732.4"/><linearGradient id="id69" gradientUnits="userSpaceOnUse" xlink:href="#id1" x1="187854" y1="38015.3" x2="195420" y2="63013.7"/><linearGradient id="id70" gradientUnits="userSpaceOnUse" xlink:href="#id1" x1="248194" y1="49438.3" x2="263594" y2="72012.4"/><linearGradient id="id71" gradientUnits="userSpaceOnUse" xlink:href="#id9" x1="296626" y1="74915.7" x2="294638" y2="61623.8"/><linearGradient id="id72" gradientUnits="userSpaceOnUse" xlink:href="#id12" x1="41031.2" y1="48121.5" x2="36306.9" y2="33006.3"/><linearGradient id="id73" gradientUnits="userSpaceOnUse" xlink:href="#id1" x1="196202" y1="37919.8" x2="203982" y2="63629.6"/><linearGradient id="id74" gradientUnits="userSpaceOnUse" xlink:href="#id1" x1="224032" y1="44977.5" x2="231043" y2="68148.2"/><linearGradient id="id75" gradientUnits="userSpaceOnUse" xlink:href="#id1" x1="269708" y1="56103.9" x2="282404" y2="74712.8"/><linearGradient id="id76" gradientUnits="userSpaceOnUse" xlink:href="#id1" x1="262285" y1="55717.3" x2="267324" y2="72367.1"/><linearGradient id="id77" gradientUnits="userSpaceOnUse" xlink:href="#id1" x1="283556" y1="58266.2" x2="288588" y2="74891.3"/><linearGradient id="id78" gradientUnits="userSpaceOnUse" xlink:href="#id12" x1="42527.3" y1="38250.9" x2="40924.2" y2="33121.5"/><style>.str1{stroke:#231f20;stroke-width:2580.42}</style></defs><g id="Layer_x0020_1"><g id="apache-13.svg"><path d="M333096 81407l-260-130v-771l-390-1029-778-900-1041-644-129-258-781-771-1168-644-1038-385h-260l-1039-901-1428-771-1558-771-1688-515h-260l-1298-1415-1558-1286-1560-772-1558-386h-260l-1428-1029-2337-901-1039-127-1428-901-1558-643-1428-258-1558-129-1559 129-1168 258-651-1157-1947-1288-2468-514h-2207l-2728 515-780 256-1947-771-2207-644-2338-256h-2208l-2338 256h-260l-2337-900-2468-642-2468-387-1298-129-2079-1929-2337-1673-2338-1157-2079-644-2597-129-1168 130-1039-901-1818-771-2208-258-1299 258-1817-644-1949-515-1818-256h-650l-2726-1030-3377-900-3117-258h-390l-2856-1672-3247-772h-2209l-4805-1158-3117-257h-1039l-1558-1544-2208-1286-2468-643-2468 258-1559 385-2077-385-2207-130-2598 130h-130v-386l-3896-900-3637-515-3377-129-1169 130v-130l-2597-386-2597-256h-260l-2858-1157-2987-773-2728-386h-1947l-2858-1028-2337-515-2468-130h-390l-2726-1801-2598-1029-1948-258-2077-1029-3118-771-2726 127-2728-1286-2858-643h-1428l-2858-1544-2857-772-2858-130-520 130-3765-1930-2857-1029-2988-257h-130l-1558-900-1688-773-1817-514-1948-130-1558 130-1819-1288-2208-899-2468-386-2079 129-2468 514-260 130-2468-1158-2596-644-2469-130-1947-1285-2079-773-2207-258-2079 258-1817 515-1430-1415-1817-1157-2209-386-1947 386-1430 643-909-643-909-386-1038-387-780-127-1168 127-1169 387-1168 772-260 256-2207-514-2209 129-1947 642-1558 1158-1299 1544-909 1930-649 2058-520 2186-259 2188 130 9777c-1299-514-2597-1029-3767-1415l130-1415 260-1543 130-1673 130-1673 130-1544 130-1544-130-1543-130-1544-130-1544-260-1286-390-1286-130-515 130-385 390-1288 520-1285 389-1288 650-1285-2208 2058-1039 900-390-514-908-901-1040-771 260 1544 260 1544 260 1027-651 901-389 901-130-386-260-773-259-900-260-1029v-900l-130-1030-130-900-130-1029V9625l130-901 130-900 130-900 260-901 260-771-1169 1544-909 1673-649 1672-390 1673-130 1802v1800l260 1802 391 1800 390 1415-651-385-651-901-778-1028-781-1030-648-1157-650-1288-519-1543-390-1801-130-2058-1428 1286-779 1415-391 1544v1543l260 1544 651 1673 779 1673 779 1286-1430-258-1558-129 1041 644 1038 643 1039 644 909 643 908 644 780 771 1298 1415 1298 1286 1170 1286 1039 1157 909 1029 519 644 520 643 260 386C38026 26608 21663 19403 1663 9883c4026 6561 18831 13380 24935 18011 6493 3473 15454 7204 23247 10163l-1688 385-1688 258-649 130h-390l-1168 127-1169 129h-1168l-1169 129h-2338l-1169-129-1168-129-1169-129-1169-129-1168-258-1170-256 1299 900 1298 771 1299 515 1298 386 780 129-1690 514-1688 644-2077 1157-1558 1029-1299 1029-1169 1288-1038 1285-781 1544-519 1802 520-644 649-643 651-644 648-643 780-515 778-515 780-514 779-515 908-385 780-387 908-258 910-386 908-256 910-258 778-130 910-127 1557-644 1688-900 1688-1029 1688-1029 1558-901 780-256h130l-1171 643-1168 773-1298 771-1299 900-1168 772-1299 771-1168 772-1299 772-1298 771-1299 773-1298 771-1299 771-1558 1030-1428 771 1428 129 1428-129 1299-258 1298-385 1299-515-390 387-909 1415-649 1543-260 1673 260 1673 651 1673 1038-1930 1039-1544 1039-1415 1038-1157 1041-900 1168-773 1168-771 1169-643 651-386-130 129-390 1671-260 2059 130 2186 391 2446 779 2829 260-1415 259-1286 391-1286 389-1286 390-1286 519-1157 520-1286 648-1286 651-1158 649-1157 651-1288 648-1158 780-1157 778-1285 781-1288 649-1028c1039 385 1947 772 2857 1028l-1688 2831-1558 3088-1298 3731-520 2059-130 1929 130 1930 390 1672 909 1801 1428 1544 2079 1157 2077 643 520 1158 1168 1544 1169 1030 1038 771 1170 643 1168 386 1038 129h1299l1168 1544 1688 1286 1948 772 2337 130 1819-515 260 385 1688 1544 1688 1158 1688 772 2338 385 1428-129 1428 1030 2209 900 1947 515 1430 1027 2337 1030 2987 643 2728 130 130 128 2077 1544 2079 1158 1948 644 2468 256 2207-385 909 514 1688 772 1819 385 1688 130 1558-258 520 385 2726 901 3116 385 3377-129 650 386 2726 900 2728 386 3636-129 2339 773 2857 385 2728-129 909 515 2726 1029 3118 387 3116-387v-129l1558 386h2597l2858-643 1688 643 2208 515 2207 256h2728l651 258 2596 773 2728 514 2987 130 2988-259v-129l1558 386 2468 387 2468 129 130-258 1688 515 3247 514 3505 130 3767-130 520 130 2338 514 2207 256 2208 130 130 127 2079 1029 2468 644h2208l2337-515 1948-1157 2208 644 2987 258h3117l650 256 3115 515 2988-258 3116-1029 2598 258 3247-130 2468-385 1428 258 1819 129 4026-386 1299 515 1947 258 1688-387 1299-644h130l2077 644 2208 387h2209l2337-515 2468-1157 2337-1415 1819 129 2468-129 2079-258 1168 387 2079 386 2077 256 2208-129 2077-385 390 129 2597 900 2339 515h2077l2079-644 1038-1029 520 129 1428 385 1428 258 1558-129 1429-256 1039-386 1817 129 1949-258 1818-771h260l1817-130 1558-256 1819-773 1299-900h1688l1558-258 1428-385 1558-644h651l908-129 910-385 259-258 1039-130 1168-514 520-900 130-644h389l1169-1158 130-514 260 129 129-3217-1559-1802v2zM55300 33549l-1948-772-130-258v-257l130 257-130-386v-514l130-1544 130-1544 130-1544 130-1415 130-1028 130 1158 129 1285 260 1288 260 1285 259 1288 260 1285 130 1415zm-5455 4631h130l-651 386h-779l391-256 910-130h-2zm-3376 3603l1169-1158 1168-1288 520-514 779-387-520 130 260-258c651 256 1428 514 2079 771l-780 515-1298 643-1558 772-1558 772-909 386 651-386h-1zm6753-1802l-651 644-908 514-781 515 260-515 1041-2058c519 258 1038 387 1557 515l-519 385z" fill="#dcddde"/><path d="M334394 81082c-26795-3642-125913-8715-170008-15869-35510-5853-70241-16389-103410-27446-8585-2862-23674-8715-33429-14048C21434 19036 6605 12013 2573 5509c64257 30438 90142 38763 165455 54111 30568 6244 141652 15219 166366 21462z" fill="#231f20" stroke="#231f20" stroke-width="6055.21"/><path class="str1" fill="url(#id26)" d="M239440 92919l-2862 1041-2861 130-2732-390-2862-1171-2731-1431-2732-2081-2601-2212-2472-2471-2471-2471-2342-2472-2211-2471-1951-2212-1951-1951-1691-1431-1561-1040-1301-390h1041l1301 130 1300 130 1431 130 1301 130 1431 130 1301 130 1170 130 1951 1821 1821 1561 1561 1691 1431 1691 1431 1561 1431 1561 1301 1561 1300 1430 1431 1431 1431 1301 1561 1301 1691 1171 1821 1170 2081 1041 2212 1041 2601 780z"/><path class="str1" fill="url(#id25)" d="M248805 92529l-3252 520-3121 130-2862-260-2732-780-2601-1041-2212-1301-2341-1431-1951-1820-2081-1821-1951-1952-1821-2081-1821-2081-1952-2082-1821-1951-1951-1951-1951-1691h1561l780 130h781l911 131 780 129 910 131h781l780 130 911 130 910 130h911l910 130h1821l911 130 650 1040 781 1301 1170 1561 1041 1561 1431 1691 1431 1821 1561 1821 1561 1691 1691 1691 1561 1561 1821 1431 1690 1170 1561 1041 1691 651 1691 390z"/><path class="str1" fill="url(#id24)" d="M255049 92659l-1951 130-1821 260-1691-130-1691-260-1821-390-1691-651-1561-910-1821-1171-1691-1171-1821-1561-1691-1820-1821-1952-1952-2341-1951-2602-2081-2861-2081-3122h1301l1171 130 1300 130 1171 130 1170 130 1301 130h2732l1301 1171 1040 1301 1171 1301 1171 1300 1040 1301 1171 1431 1040 1171 1171 1431 1041 1300 1170 1301 1171 1301 1171 1171 1301 1170 1300 1041 1301 1171 1431 1040z"/><path class="str1" fill="url(#id23)" d="M261682 92269l-1430 780-1691 260-1561-130-1691-650-1691-1041-1691-1431-1691-1431-1821-1821-1691-1951-1691-1951-1561-1951-1691-1951-1431-1821-1430-1691-1431-1431-1171-1171 8065 781 910 1171 1041 1170 910 1301 911 1171 910 1170 911 1171 910 1301 1041 1171 1040 1170 1041 1171 1041 1171 1300 1170 1171 1041 1301 1171 1431 1040 1430 1041z"/><path class="str1" fill="url(#id22)" d="M275081 90578l-2342 1430-2211 1041-2211 520h-2082l-2081-390-1951-780-1951-1041-1821-1301-1821-1691-1821-1691-1691-2081-1821-2081-1691-2211-1561-2212-1691-2341-1561-2081 1431 130 1040 130h781l650 130 650 130h1692l1300 130 1431 1951 1431 1952 1431 1821 1561 1561 1560 1430 1561 1431 1561 1171 1561 1040 1431 911 1561 911 1431 520 1301 520 1430 521 1171 260 1301 130 1041 130z"/><path class="str1" fill="url(#id34)" d="M282104 90057l-2471 391-2341 130-2211-130-2212-391-2081-390-2081-650-1821-911-1822-1040-1821-1171-1690-1301-1692-1430-1560-1561-1561-1692-1431-1821-1431-1821-1301-1951h1431l1691 130 1561 260h1691l1301 131 1170 130h781l390 130 130 130 391 390 650 650 780 781 781 911 1040 1040 1171 1041 1301 1300 1431 1171 1561 1301 1431 1171 1690 1300 1692 1041 1820 1040 1821 911 1821 780z"/><path class="str1" fill="url(#id21)" d="M291340 90578l-1951 390-1951 130-2082-130-2081-390-2081-651-1951-910-1951-910-1952-1302-1821-1300-1821-1301-1691-1431-1691-1561-1560-1561-1561-1561-1431-1430-1301-1561h911l1170 130h2472l1301 130 1170 130 1041 130 780 130v130l260 390 781 651 1040 780 1301 1171 1561 1171 1691 1301 1691 1300 1821 1301 1821 1431 1821 1171 1561 1170 1561 1041 1431 910 1040 520 651 391z"/><path class="str1" fill="url(#id35)" d="M301746 90578l-1301 1170-1561 521h-1951l-2211-521-2472-910-2471-1301-2601-1431-2602-1691-2602-1821-2341-1821-2341-1821-1952-1561-1690-1430-1301-1171-911-651-390-390 1041 130h1040l1171 130 1040 130 1301 130h1171l1171 131h1300l1431 910 1301 780 1431 911 1300 910 1301 911 1301 911 1431 910 1301 911 1300 1040 1301 911 1301 910 1301 911 1431 780 1300 781 1301 910 1431 781z"/><path class="str1" fill="url(#id13)" d="M309290 90708l-1301 390-1300 260-1301 130-1301-260-1301-390-1301-520-1430-781-1561-911-1691-1040-1691-1171-1951-1430-2082-1431-2341-1561-2471-1691-2732-1821-2992-1952 1171 131h2732l1300 130h1171l911 130 650 130h130l260 260 390 390 651 651 910 780 1171 1041 1301 1171 1301 1040 1691 1301 1560 1170 1692 1171 1690 1041 1692 1170 1690 911 1691 650 1561 521 1431 390z"/><path class="str1" fill="url(#id57)" d="M314753 89797l-1691 781-1821 260-2081-130-1951-521-2212-780-1951-1041-2211-1170-1951-1301-1821-1431-1821-1431-1691-1300-1431-1431-1301-1171-1040-910-780-651-391-520 1171 130h1171l1170 130 1041 130 1171 130h1040l1301 130 1170 130 911 781 1041 910 780 781 1041 910 1040 1041 911 911 1040 910 1171 911 1040 780 1041 781 1171 780 1041 650 1170 650 1171 521 1171 390 1170 260z"/><path class="str1" fill="url(#id14)" d="M321517 87716l-1561 1041-1561 650-1431 390h-1560l-1561-260-1431-520-1561-651-1431-910-1561-910-1431-1302-1431-1170-1430-1301-1431-1301-1431-1300-1301-1301-1430-1171h910l780 130 1041 131 1041 129 1171 131h1170l1301 130 1301 130 260 910 520 911 650 780 651 911 780 780 781 651 780 780 1041 650 1040 651 1041 520 1171 521 1040 390 1301 260 1170 260 1302 130 1300 130z"/><path class="str1" fill="url(#id65)" d="M327500 86546l-1300 520-1431 390-1431 260h-1561l-1560-130-1561-130-1692-520-1560-390-1561-781-1431-650-1301-911-1171-911-1040-1040-911-1171-650-1300-521-1301 911 130h911l1040 130 911 130h1041l1040 130 1171 130h1300l521 781 650 780 521 651 650 650 520 520 781 520 650 521 650 390 781 390 780 391 911 390 910 390 911 260 910 260 1171 261 1041 260z"/><path class="str1" fill="url(#id30)" d="M330622 85505l-520 520-650 260-911 130h-910l-1041-130-1040-130-1301-390-1171-390-1171-521-1300-650-1171-650-1041-781-1041-780-910-911-780-910-521-1041 651 130h650l651 130 780 130h650l651 130h1041v260l650 651 1170 780 1431 1041 1821 910 1821 1041 1821 780 1691 391z"/><path class="str1" fill="url(#id29)" d="M332704 83424l-130 1040-391 651-520 260-910 260-911-260-1171-260-1171-521-1170-650-1171-651-1171-780-1170-650-911-781-780-520-651-520-390-260v-131l5853 651 521 260 650 390 911 520 1040 391 1041 520 1040 390 911 391 650 260z"/><path class="str1" fill="url(#id27)" d="M325940 80302h1300l1171 130 1041 130h910l911 130h1041l1040 260 1040 130-130 1431-780 780h-1041l-1300-390-1431-780-1431-651-1301-780-1040-390z"/><path class="str1" fill="url(#id28)" d="M326200 79521l1301 261 1040 129 1041 261 1040 130 911 260 910 130 1041 260 1041 260 129-1561-650-1170-1040-260-1431-131-1561 260-1561 391-1301 520-910 260z"/><path class="str1" fill="url(#id74)" d="M247374 48693l-3382-1170-3121-911-2992-260-2862 260-2731 521-2472 910-2341 1301-2342 1431-2341 1691-2211 1821-2212 1951-2081 1951-2081 1821-2211 1821-2081 1821-2211 1561 780 130 910 130h781l780 260h781l910 131h911l780 129h781l910 131 911 130 910 130h911l910 130 911 130 910 130 781-1041 1040-1300 1041-1431 1431-1561 1431-1691 1561-1691 1821-1691 1690-1561 1952-1561 1821-1300 1951-1171 1951-1041 1821-780 1951-390 1821-131 1821 260z"/><path class="str1" fill="url(#id63)" d="M253098 49994l-1952-650-1821-390-1690-390-1821-131-1822 131-1821 390-1690 520-1821 911-1952 1040-1821 1301-1951 1691-2081 1821-2212 2211-2211 2472-2341 2861-2471 3122h1300l1301 260h1041l1170 130 1041 130 1040 261 1301 130 1561 260 1431-1171 1171-1171 1430-1301 1171-1300 1301-1301 1301-1301 1170-1301 1301-1170 1301-1301 1431-1041 1171-1170 1431-1171 1430-1041 1561-780 1431-781 1691-780z"/><path class="str1" fill="url(#id67)" d="M259341 51685l-1431-1170-1560-651-1691-130-1821 390-1821 781-1952 1041-1951 1300-1951 1691-1951 1691-1951 1821-1951 1821-1821 1951-1691 1691-1561 1561-1431 1431-1431 1171 8325 910 1041-1170 1040-1301 911-1171 1170-1171 1041-1300 1040-1171 1171-1301 1041-1171 1170-1040 1171-1171 1301-1040 1431-1041 1431-911 1430-910 1691-781 1561-650z"/><path class="str1" fill="url(#id70)" d="M271828 57018l-2211-2211-2211-1561-2211-1040-2082-651-2081-130-2081 390-2081 781-1951 910-1952 1431-1951 1561-1951 1821-1821 1951-1821 2081-1821 2212-1821 2211-1821 2081 1431 130 1170 130h1041l911 131 910 259 911 131 1170 130 1431 260 1561-2082 1431-1820 1691-1691 1431-1431 1691-1171 1431-1171 1431-910 1560-650 1431-651 1301-520 1561-261 1301-390 1300-130 1301-130z"/><path class="str1" fill="url(#id76)" d="M280674 58969l-2472-910-2341-651-2341-390-2212-130h-2211l-2081 391-2081 390-1952 650-1951 911-1821 1040-1951 1171-1691 1431-1821 1431-1561 1691-1691 1821-1561 1951 1561 260 1821 260 1821 260 1821 130 1691 260 1301 130 1041 131h390l130-131 390-390 520-520 651-651 780-780 1041-910 1170-911 1301-1171 1431-910 1431-1041 1691-1040 1821-911 1821-910 1951-781 2081-650 2082-521z"/><path class="str1" fill="url(#id75)" d="M291860 60400l-1951-780-2081-651-2211-260h-2082l-2211 260-2211 391-2082 780-2211 781-2081 1040-2081 1041-1951 1301-1951 1300-1692 1301-1821 1431-1561 1431-1430 1431 1040 129 1171 131 1301 130 1431 130 1561 260 1170 130h2081v-130l261-390 780-521 1171-780 1301-781 1690-1040 1822-1040 1821-1041 1951-1041 1951-1040 1951-1041 1821-911 1691-780 1431-520 1301-390 910-261z"/><path class="str1" fill="url(#id77)" d="M302526 62611l-1040-1690-1561-1041-2082-260h-2211l-2471 520-2732 781-2861 1170-2862 1301-2862 1431-2601 1431-2602 1561-2211 1431-1951 1170-1431 911-910 650-521 260 1041 260 1301 130 1300 130 1301 130 1431 131 1431 130 1431 260 1300 130 1431-651 1431-650 1431-780 1300-781 1432-650 1300-780 1431-781 1431-780 1300-651 1431-780 1431-651 1301-650 1431-650 1431-521 1431-650 1430-521z"/><path class="str1" fill="url(#id31)" d="M316054 66254l-1691-1301-1821-650-1951-261h-2212l-2211 391-2211 650-2211 781-2211 1040-1952 1171-2081 1040-1821 1301-1561 1041-1431 1040-1171 911-910 520-390 390 1171 130 1170 131 1041 260h910l1041 130 1041 130 1170 130 1171 130 1041-651 1040-650 1171-911 1171-780 1170-780 1171-781 1301-910 1170-781 1171-650 1301-650 1300-651 1171-390 1301-390 1301-260h1170l1171 130z"/><path class="str1" fill="url(#id71)" d="M311111 64042l-1301-910-1431-521-1300-390-1301-130-1301 130-1561 261-1560 520-1692 650-1821 781-1821 910-2081 1171-2341 1171-2472 1300-2731 1431-2992 1431-3252 1561 1301 130 1301 130 1301 130 1430 260 1171 130 911 130 780 130 260-130 130-130 520-390 651-651 910-650 1171-780 1431-911 1431-1040 1561-911 1691-1040 1821-1041 1821-781 1951-780 1821-650 1951-391 1821-130z"/><path class="str1" fill="url(#id64)" d="M322168 70026l-1432-1431-1430-1171-1431-780-1431-390-1561-130-1561 130-1691 390-1560 520-1692 911-1561 780-1690 1041-1691 1040-1691 1171-1561 1040-1561 1171-1561 1041 780 130h1041l1171 260 1170 130 1301 130 1431 260 1171 131 1301 129 520-1040 520-781 650-910 651-651 780-780 911-520 910-521 1041-390 1041-390 1170-390 1041-130 1301-130 1300-131 1171 1 1301 130 1431 130z"/><path class="str1" fill="url(#id47)" d="M331533 75099l-390-651-651-520-780-520-911-261-1170-260h-3773l-1300 261-1301 390-1301 390-1171 520-1170 651-1041 780-910 781-651 910 651 130 780 130 910 131 781 260h780l651 130h520l390-130 651-521 1301-650 1561-650 1690-521 1952-650 1951-260 1951 130z"/><path class="str1" fill="url(#id49)" d="M333354 78221v-1301l-260-911-520-520-911-390-910-260-1171 130-1171 130-1431 390-1301 390-1300 521-1171 390-1041 520-910 390-781 261-390 390h-130l6114 1040 520-130 781-260 910-260 1041-390 1040-130 1171-260h910z"/><path class="str1" fill="url(#id48)" d="M328281 73148l-1171-1041-1300-781-1431-650-1561-520-1691-260-1561-260h-1691l-1691 260-1561 260-1561 520-1430 650-1432 651-1170 1041-1171 1040-780 1171-651 1300 911 131 910 130 1041 130 1041 130 1040 130 1171 130 1171 130 1300 260 521-780 520-520 520-521 781-520 650-520 910-391 781-390 911-390 910-261 1041-260 910-130 911-130h2992z"/><path class="str1" fill="url(#id0)" d="M58505 36857l-129 260-391 520-520 1041-650 1171-781 1430-780 1691-651 1821-650 1821-391 1821-129 1821v1821l390 1692 910 1560 1301 1301 1821 1040 2342 781-391-1171-260-1170-260-1171-130-1431-130-1300v-1431l130-1431 130-1431 130-1431 130-1431 260-1431 260-1300 260-1171 261-1171 390-1171 260-910-390-260h-260l-390-130-261-130-390-130-260-130-390-130-391-130z"/><path class="str1" fill="url(#id2)" d="M61107 37897l-1041 4163-780 3772-390 3252v2862l130 2601 390 2081 650 1821 651 1561 910 1171 1041 910 911 781 1040 520 1040 390 911 130h1561l-390-1170-521-1171-390-1431-260-1301-260-1561-260-1431-260-1560-131-1561-129-1691v-1561l129-1691 131-1561 260-1691 260-1561 390-1561 520-1560-910-391-911-260-910-260-780-260-651-260-780-261-651-129-520-131z"/><path class="str1" fill="url(#id3)" d="M67220 39849l-390 1430-520 1951-260 2082-130 2341-130 2601v2602l260 2601 390 2472 520 2341 651 2212 1040 1821 1171 1561 1431 1170 1691 520 1821 131 2211-651-781-1301-910-1430-650-1561-651-1431-390-1561-520-1561-260-1561-260-1561-260-1691v-3252l129-1560 131-1692 260-1561 390-1690 390-1691-780-261-911-259-910-261-911-390-910-260-651-260-780-260-521-130z"/><path class="str1" fill="url(#id1)" d="M86472 71197l-1952 129-2081-260-1691-780-1561-1040-1561-1431-1300-1691-1041-1952-910-2211-781-2341-650-2602-390-2471-131-2601v-2602l261-2601 390-2472 650-2341 911 260 780 390 911 130 910 390 911 261 1040 260 911 390 910 260v3382l130 1951v1951l131 2081 130 2082 130 2211 260 2081 390 2081 260 1821 391 1821 520 1692 650 1300 781 1171 780 780 911 521z"/><path class="str1" fill="url(#id4)" d="M81138 44271l781 390 780 260 651 130 780 131 651 260 780 260 780 260 651 260 130 1561 130 1561 130 1821v5853l130 2082v1951l260 1951 130 1951 391 1821 390 1691 650 1561 651 1561 910 1170 1041 911-2212-521-1821-650-1561-1171-1300-1170-1041-1431-780-1691-651-1821-390-1821-390-2211-260-2212v-2211l-130-2471v-2342l-130-2471v-2602z"/><path class="str1" fill="url(#id10)" d="M101170 76660l-2992-131-2601-650-2082-910-1690-1301-1431-1691-1041-1951-780-2082-520-2341-261-2471-260-2472-130-2601v-7414l-130-2342-130-2081 780 260 781 130 650 260 781 260 780 261 651 130 780 260 910 130-130 260-129 520-131 911-260 1041-130 1300-130 1561-130 1691 130 1951 130 2081 390 2342 781 2341 780 2341 1171 2602 1561 2602 1821 2601 2211 2602z"/><path class="str1" fill="url(#id18)" d="M111576 79912l-2081 390-2082-130-1951-651-1951-1170-1951-1431-1821-1691-1561-2081-1561-2342-1301-2601-1170-2732-911-2862-650-2861-260-2992-130-2991 260-2862 650-2992 7154 2341v1171l-130 1431 130 1561 131 1821 260 1951 390 2081 260 2081 651 2212 650 2211 910 2081 911 2081 1171 2082 1170 1951 1431 1821 1561 1691 1821 1431z"/><path class="str1" fill="url(#id6)" d="M100130 50124l1170 391 1431 260 1561 650 1691 390 1561 521 1561 520 1430 260 1041 260 130 1821 130 1821 130 1951 130 1952 130 1951 261 2081 129 1951 391 1951 390 1952 390 1820 651 1821 650 1561 781 1691 1040 1301 1041 1301 1301 1171-1561 130h-1561l-1561-391-1561-650-1691-1041-1561-1170-1431-1561-1561-1821-1430-2082-1171-2471-1171-2601-911-2992-780-3252-650-3512-391-3902-130-4033z"/><path class="str1" fill="url(#id16)" d="M129136 82903l-3382 130-2862-260-2471-780-1951-1301-1691-1561-1431-1951-910-2081-781-2472-650-2341-390-2732-130-2601-261-2471-130-2602-130-2341-130-2211-260-1952 1041 130 910 261 911 259 780 261 911 260 780 260 1041 260 1170 260 261 2081 130 1952 260 1951 260 1951 260 1821 260 1821 390 1821 390 1691 521 1691 650 1691 781 1561 780 1561 1041 1561 1170 1561 1431 1430 1431 1431z"/><path class="str1" fill="url(#id7)" d="M138371 84594l-2991 130-2732-390-2341-780-2081-1301-1691-1561-1561-1951-1171-2212-1041-2341-910-2341-650-2601-651-2472-260-2602-390-2471-260-2211-260-2211-130-1822 1040 261 911 260 780 260 910 130 781 260 780 130 1041 260 1040 260 391 2992 520 2732 521 2601 520 2472 650 2081 651 2211 780 1821 781 1691 650 1561 910 1431 911 1301 780 1040 911 1171 910 780 1041 781 910 650z"/><path class="str1" fill="url(#id5)" d="M146956 85765l-2861 130-2602-390-2211-781-2081-1300-1821-1561-1561-1821-1431-2082-1171-2341-1040-2341-911-2472-650-2471-521-2471-650-2342-260-2341-390-2081-260-1821 910 260 911 130 910 260 911 260 910 260 911 130 910 260 911 260 130 1431 260 1561 260 1691 521 1821 520 1951 780 1951 780 1952 781 1951 1041 2081 1040 1821 1041 1821 1171 1561 1170 1691 1171 1300 1301 1171 1170 911z"/><path class="str1" fill="url(#id9)" d="M156452 87456l-2992 390-2731-390-2472-910-2211-1561-2211-1952-1822-2211-1560-2601-1561-2602-1171-2862-1170-2731-911-2602-650-2471-521-2081-390-1821-260-1171v-780l1171 129 1040 261 1040 390 1171 130 1041 390 910 130 1041 260 911 131 390 1300 390 1561 520 1691 521 1951 650 2081 651 2082 780 2211 780 2211 911 2081 1040 1952 1041 1951 1171 1561 1170 1431 1301 1170 1431 911 1561 390z"/><path class="str1" fill="url(#id8)" d="M163346 87066l-2732 650h-2341l-2211-520-2081-1041-1822-1431-1560-1821-1431-2081-1301-2341-1041-2342-1040-2471-651-2602-780-2341-650-2341-391-2081-520-1821-390-1431 910 260h781l780 130 651 130 780 260 650 130 651 130 650 130 260 1691 391 1821 390 1821 520 1691 520 1821 781 1821 650 1691 911 1561 911 1691 1170 1561 1171 1561 1170 1301 1431 1430 1431 1171 1691 1171 1691 1040z"/><path class="str1" fill="url(#id36)" d="M172061 88497h-2341l-2212-261-2081-520-2081-780-1821-1041-1951-1301-1691-1561-1691-1690-1431-1822-1301-2081-1301-2211-1040-2342-911-2601-780-2601-651-2732-520-2732 1041 130 910 131 1041 260 1041 130 910 260 910 130 1041 130 911 260 520 1561 260 1691 520 1561 390 1691 391 1561 520 1561 650 1561 651 1561 780 1560 911 1561 1171 1561 1300 1431 1561 1431 1821 1561 2081 1560 2472 1431z"/><path class="str1" fill="url(#id46)" d="M184288 89927l-2992 130-2861-130-2602-390-2602-780-2341-1041-2211-1301-1951-1430-1821-1821-1691-1952-1561-2081-1301-2341-1170-2342-1041-2601-781-2601-650-2732-390-2732 780 130 911 260 910 131 911 129 910 131 1041 260 910 130 1041 260 260 1821 520 1951 521 1821 780 1821 911 1821 1040 1821 1171 1821 1171 1691 1431 1561 1561 1561 1560 1431 1691 1431 1821 1170 1952 1171 2081 911 2081 910z"/><path class="str1" fill="url(#id42)" d="M191052 90578l-2602-130-2341-391-2471-520-2342-911-2211-1170-2211-1171-1951-1431-1952-1690-1691-1822-1691-1951-1430-2211-1301-2211-1041-2342-910-2341-781-2471-390-2602 781 130h780l651 130 780 130h650l781 130 910 260 1041 131 1040 2211 911 1951 910 1951 781 1821 910 1821 911 1561 910 1561 911 1431 1171 1431 1170 1301 1301 1300 1561 1301 1691 1171 2081 1300 2081 1171 2602 1171z"/><path class="str1" fill="url(#id62)" d="M203149 91358l-3772 130-3382-130-3122-520-2862-781-2731-1170-2342-1431-2211-1561-1951-1821-1821-1951-1691-2081-1431-2212-1301-2341-1301-2341-1170-2342-1041-2471-1040-2342 650 131 911 130 1170 130 1171 130 1171 260 1040 130 911 130 780 130 911 2082 910 2080 1171 2082 1170 1821 1302 1821 1300 1691 1431 1561 1561 1561 1691 1430 1691 1431 1821 1301 1951 1301 1951 1040 2082 1171 2080 911 2342 910z"/><path class="str1" fill="url(#id41)" d="M210303 92399h-1951l-2211-391-2212-520-2341-780-2342-1041-2341-1170-2471-1432-2342-1560-2211-1821-2211-1951-2081-2082-1951-2341-1692-2341-1560-2472-1431-2601-1171-2732 1171 130 1171 130 1170 130 1171 131h1040l911 259 781 131 390 260 1431 1040 1300 1041 1431 1431 1431 1300 1431 1561 1561 1561 1561 1691 1431 1691 1561 1691 1560 1691 1691 1691 1561 1691 1691 1561 1691 1561 1691 1561 1691 1301z"/><path class="str1" fill="url(#id61)" d="M221359 92399l-1951 1301-2081 520h-1951l-2212-520-2080-1041-2082-1431-2211-1821-2211-2081-2212-2341-2211-2342-2471-2601-2342-2602-2341-2471-2341-2472-2472-2341-2471-2081h910l911 260h1170l1171 260 1171 130 1301 260 1040 130 1041 260 1821 1691 1951 1691 1821 1821 1821 1822 1691 1821 1821 1821 1691 1821 1691 1690 1691 1691 1691 1561 1561 1301 1561 1171 1561 1040 1560 911 1561 780 1431 391z"/><path class="str1" fill="url(#id50)" d="M229945 93439h-3122l-2862-390-2732-650-2601-1041-2342-1171-2211-1561-2081-1690-1951-1821-1951-1951-1951-2082-1821-1951-1822-2211-1951-2081-1951-2082-2081-1821-2081-1821h780l911 131 1041 129 1170 130 1171 131h910l781 130h390l1301 260 1300 650 1301 781 1301 1170 1431 1431 1431 1561 1561 1691 1431 1821 1821 1821 1690 1951 1951 1951 2082 1821 2211 1951 2342 1692 2471 1690 2732 1431z"/><path class="str1" fill="url(#id11)" d="M61367 31003v-260l-130-910v-1301l-130-1561-130-1821 130-2081 130-2081 130-2212 520-2081 521-1951 780-1821 1171-1431 1301-1041 1691-520 1951-130 2341 650-650 651-781 910-650 1171-650 1171-521 1431-520 1300-520 1561-521 1561-520 1561-391 1561-390 1561-390 1561-260 1561-260 1431-260 1300-261 1171h-390l-260-130-390-130-260-130-260-131-390-129-391-131-390-130z"/><path class="str1" fill="url(#id15)" d="M64099 32174l1040-4943 1041-4162 1040-3512 1041-2992 1041-2341 1170-1952 1041-1300 910-1041 1041-650 911-260 1040-131 780 131 911 260 780 390 651 521 650 390-1171 1040-1040 1171-911 1040-910 1171-911 1171-780 1301-781 1300-650 1431-650 1431-651 1431-650 1561-520 1561-390 1691-521 1690-390 1692-390 1821-911-131h-650l-520-260-260-130h-391l-260-130-260-130-520-130z"/><path class="str1" fill="url(#id17)" d="M67871 33605l260-1821 390-2081 651-2212 780-2471 911-2471 1170-2472 1171-2341 1431-2212 1431-1951 1431-1691 1690-1300 1561-781 1821-260 1691 260 1691 910 1691 1822-1301 910-1300 1171-1171 1171-1171 1170-1170 1171-911 1301-910 1431-911 1300-781 1561-650 1561-780 1561-521 1691-520 1691-390 1821-390 1951-260 1951-781-260-910-260-1041-390-911-260-910-391-911-390-650-260-520-130z"/><path class="str1" fill="url(#id38)" d="M97528 13703l-1821-1170-1821-651-1951-260-1821 260-1951 521-1822 1040-1690 1301-1691 1691-1431 1821-1561 2081-1301 2341-1170 2472-911 2471-781 2732-650 2732-260 2861 910 260 911 130 910 391 911 260 1040 390 911 260 911 260 1040 131 651-1692 650-1951 650-1821 781-1951 650-1951 911-1951 780-1951 911-1821 910-1691 911-1561 1040-1561 1171-1301 1171-1171 1170-910 1301-651 1431-390z"/><path class="str1" fill="url(#id37)" d="M105853 15915l-2992-1171-2471-780h-2342l-2081 390-1821 780-1561 1301-1431 1561-1300 1951-1041 2081-1041 2341-1040 2472-911 2471-780 2472-911 2471-910 2342-911 2211 781 130 780 130 781 260 650 260 780 261 781 259 910 261 781 130 130-260v-781l260-911 260-1430 260-1561 650-1821 521-1951 910-2081 911-2082 1171-1951 1430-2081 1561-1951 1952-1821 2081-1431 2471-1431 2732-1041z"/><path class="str1" fill="url(#id45)" d="M116519 17606l-1691-1301-1951-911-2211-260-2082 130-2211 390-2341 911-2212 1301-2211 1431-2081 1951-1951 2081-1691 2471-1691 2602-1301 2862-1040 2991-651 3122-390 3382 7804 1951 391-1300 650-1431 520-1691 781-1691 910-1821 911-1951 1040-1822 1171-1951 1301-1821 1431-1821 1561-1691 1560-1561 1691-1430 1952-1301 1951-1041 2081-780z"/><path class="str1" fill="url(#id44)" d="M96487 42970l1171 260 1431 260 1431 391 1561 520 1560 520 1431 391 1301 390 1301 390-260-130 1040-1821 911-1951 780-1951 781-2082 910-2081 781-1821 780-2081 1041-2081 1040-1821 1041-1561 1301-1691 1300-1431 1171-1301 1561-1040 1561-781 1561-650-1431-910-1431-651-1561-520-1821-130-1821 130-1821 520-1951 780-1951 1171-1951 1431-1951 1821-1951 2211-1952 2602-1821 2992-1821 3382-1691 4032-1561 4292z"/><path class="str1" fill="url(#id43)" d="M134469 23069l-3121-1691-2732-911-2602-260-2341 390-2081 911-1951 1301-1691 1821-1561 2081-1301 2341-1301 2472-1171 2731-1040 2602-1041 2601-1040 2472-911 2341-910 1951 1041 260 910 130 910 260 781 131 910 260 911 260 911 130 1170 260 1041-2081 910-2082 911-1951 910-1951 781-1821 1040-1691 1041-1821 910-1561 1171-1561 1171-1430 1170-1431 1431-1301 1561-1171 1561-1040 1821-1041 1821-911z"/><path class="str1" fill="url(#id53)" d="M143965 25800l-2862-1561-2601-650-2602-260-2341 390-2211 910-2082 1431-1951 1691-1821 1952-1691 2211-1561 2341-1561 2472-1170 2471-1301 2602-1041 2211-910 2211-781 1821 1041 260 1040 261 911 260 781 130 910 260 911 130 1170 130 1171 260 1300-2992 1432-2861 1300-2472 1301-2471 1171-2081 1170-1822 1171-1690 1171-1691 1170-1171 1171-1171 1301-1040 1301-781 1170-650 1431-520 1431-261 1561-260z"/><path class="str1" fill="url(#id51)" d="M150989 27882l-2732-1301-2471-651h-2472l-2341 521-2081 910-2082 1301-1951 1561-1821 1951-1561 2081-1430 2342-1561 2341-1171 2341-1171 2342-1040 2211-911 2081-780 1951 910 261 781 129 910 131 781 260 780 130 781 130 910 260 1041 130 390-1431 780-1691 781-1691 1040-1821 1041-1821 1301-1821 1301-1821 1430-1821 1431-1691 1561-1691 1691-1431 1561-1300 1691-1171 1561-1041 1561-780 1561-390z"/><path class="str1" fill="url(#id54)" d="M159574 30093l-2732-1561-2732-650h-2731l-2602 780-2471 1171-2471 1821-2212 2081-2211 2211-1951 2472-1691 2471-1561 2471-1301 2342-1040 1951-911 1821-390 1301-260 780 1171 130 910 261 1041 260 910 259 1041 131 910 130 1041 260 910 130 651-1301 780-1561 911-1821 1040-1821 1171-2081 1171-1951 1301-1951 1430-2082 1431-1951 1431-1690 1691-1561 1561-1301 1691-1041 1561-780 1821-260 1691 130z"/><path class="str1" fill="url(#id52)" d="M165817 32434l-2471-1691-2472-910-2211-130-2341 390-2081 910-2082 1301-1821 1691-1821 2081-1691 2212-1560 2341-1431 2341-1431 2472-1171 2211-1041 2211-780 1821-781 1431 911 130 781 260 650 261 650 259 651 131 650 260 521 130 780 130 650-1821 781-1951 910-1821 911-1821 1040-1821 1041-1561 1171-1691 1301-1561 1430-1561 1431-1431 1561-1170 1691-1171 1821-911 1821-910 1951-521 2081-520z"/><path class="str1" fill="url(#id60)" d="M173752 34255l-2211-780-2211-521-2342-260-2081 260-2212 391-2081 650-1951 1171-2081 1170-1951 1561-1821 1821-1691 1951-1691 2212-1561 2471-1301 2602-1431 2861-1170 2862 1040 260 1041 130 910 261 1041 259 911 260 1040 261 911 260 1040 130 650-1691 651-1691 780-1691 651-1821 780-1561 911-1691 910-1561 1041-1561 1300-1430 1431-1431 1561-1301 1691-1301 2081-1040 2082-911 2601-910 2732-651z"/><path class="str1" fill="url(#id58)" d="M184938 36857l-2861-1171-2862-780-2731-391h-2602l-2472 391-2471 650-2341 1041-2081 1170-2082 1691-1951 1821-1691 1951-1691 2342-1561 2471-1170 2732-1301 2732-1040 2861 910 130 910 260 1041 131 1040 129 1041 130 1041 131 1040 129 1041 261 650-2212 651-1951 910-1951 1041-1951 1170-1691 1301-1691 1301-1561 1561-1431 1561-1430 1821-1041 1951-1171 1951-910 2081-651 2212-650 2341-260 2341-260z"/><path class="str1" fill="url(#id59)" d="M190402 37507l-2472-390-2602-260-2471 130-2471 260-2341 650-2342 781-2211 910-2082 1301-1951 1431-1951 1691-1560 1821-1692 1951-1300 2341-1171 2472-1041 2601-780 2732 910 130 781 130 780 130 781 130 780 130 651 130 910 260 1041 131 1300-2212 1171-2081 1041-1951 1040-1821 1041-1691 1040-1561 911-1561 1171-1301 1171-1300 1430-1171 1431-1041 1691-1041 1951-780 2212-780 2471-651 2732-650z"/><path class="str1" fill="url(#id68)" d="M202499 39068l-3773-911-3642-520-3252-130-2991 260-2732 651-2602 910-2341 1171-2211 1431-1951 1691-1821 1951-1691 2081-1561 2211-1431 2212-1431 2471-1171 2342-1170 2471 520 130 911 130 910 130 911 260 1040 130 911 260 780 130h651l1170-2211 1171-2081 1431-1951 1431-1821 1561-1821 1561-1561 1690-1431 1822-1301 1951-1301 1951-1040 2081-1041 2081-1040 2211-781 2212-780 2341-651 2472-650z"/><path class="str1" fill="url(#id69)" d="M209653 39849l-2082-391-2211-130-2471 130-2472 391-2471 520-2601 780-2602 1041-2472 1171-2601 1430-2471 1691-2342 1821-2211 2082-2081 2211-1951 2471-1561 2602-1431 2861 1041 131 1040 129 1041 261 1040 130 911 260 780 260h1041l1430-911 1561-1040 1561-1301 1691-1301 1691-1430 1691-1561 1821-1561 1822-1561 1951-1561 1821-1561 1951-1561 1951-1561 2081-1431 1951-1300 2212-1171 1951-1040z"/><path class="str1" fill="url(#id73)" d="M219799 42710l-1952-1951-2081-1041-2081-520-2211 130-2212 650-2471 1171-2342 1561-2601 1691-2602 2081-2601 2211-2732 2342-2601 2341-2731 2342-2732 2211-2732 2081-2732 1821 781 130 1041 130h1170l1301 130 1171 130h2471l1041-130 1951-1431 2081-1560 1952-1691 1821-1561 1820-1691 1691-1561 1691-1561 1821-1561 1821-1301 1692-1300 1821-1171 1951-1041 1951-780 2081-651 2081-390 2212-260z"/><path class="str1" fill="url(#id55)" d="M227343 43621l-3122-781-2992-260-2862 130-2601 520-2471 911-2472 1171-2341 1431-2211 1560-2212 1822-2211 1821-2211 1951-2081 2081-2212 1821-2211 1951-2341 1561-2342 1691h781l910 130 1171 260h1171l1040 130 1041 260h781l390 130h1431l1300-390 1431-780 1561-911 1561-1171 1561-1430 1821-1691 1821-1691 1821-1691 2081-1821 2211-1691 2211-1691 2602-1561 2472-1561 2731-1171 2992-1040z"/><path class="str1" fill="url(#id56)" d="M236838 46222l-2731-1561-2992-650h-2862l-2991 650-2862 1041-2992 1691-2862 1821-2861 2081-2601 2211-2602 2341-2472 2082-2341 1951-1951 1691-1951 1301-1691 780-1431 260 1301 130 1171 261 1560 130 1431 260 1561 130 1431 260 1561 130h1171l2211-1561 1821-1561 1821-1430 1561-1561 1561-1431 1431-1431 1561-1301 1430-1301 1431-1171 1561-1170 1691-1041 1821-1040 1951-911 2081-780 2472-651 2601-650z"/><path class="str1" fill="url(#id19)" d="M53302 15134l-260-650-390-911-260-780-260-911-260-910-131-911-129-910-131-1041-130-910V4338l130-910 131-911 260-911 260-780-1301 1561-911 1691-650 1691-390 1821-130 1821v1821l260 1821 390 1821 390 1691 651 1821 650 1691 650 1821 781 1561 650 1691 781 1561 650 1561-130-391-130-520v-1171l-130-910v-2602l-130-1040v-2081l-130-911v-910l-260-911-130-910-261-781z"/><path class="str1" fill="url(#id66)" d="M30279 46612l1431-780 1431-911 1431-910 1300-781 1301-780 1301-781 1171-780 1300-781 1171-780 1301-781 1171-910 1300-650 1171-781 1301-650 1431-781 1300-780-1170 1171-1171 1301-1301 1170-1170 1171-1301 1171-1301 1040-1301 1041-1300 1040-1301 911-1431 780-1301 651-1301 520-1301 520-1430 130-1301 131-1431-131z"/><path class="str1" fill="url(#id39)" d="M41596 16305l1040 650 911 651 1040 650 911 780 910 651 781 780 910 781 781 780 780 781 781 910 780 781 651 910 780 780 650 911 651 910 650 911-260-911-390-1040-391-1041-390-1040-520-1041-520-1040-521-911-780-1040-651-911-1040-780-911-781-1040-650-1301-521-1170-390-1561-390-1561-130z"/><path class="str1" fill="url(#id20)" d="M52782 7200l390 1560 130 1561 391 1431 260 1431 130 1431 130 1301 260 1431 130 1300 260 1431 130 1301 130 1301 261 1431 260 1300 260 1431 260 1301 260 1430 260-1690 130-1561 261-1691 130-1691v-1561l130-1561-130-1561v-1561l-261-1561-130-1301-390-1430-520-1171-521-1171-780-1040-781-911-1040-910z"/><path class="str1" fill="url(#id32)" d="M44718 4728l-1301 1301-911 1431-390 1561v1561l260 1560 650 1691 781 1691 1040 1691 1041 1561 1301 1561 1301 1561 1300 1301 1171 1430 1041 1041 910 1171 781 780-131-2341-390-1951-390-1691-520-1431-651-1301-780-1170-780-1041-781-1041-780-910-781-1041-780-1040-651-1171-520-1431-521-1430-390-1821-129-2082z"/><path class="str1" fill="url(#id12)" d="M54473 28922v-2992l130-1561v-1560l130-1431 130-1431 130-1431 130-1301 261-1430 260-1431 390-1431 260-1301 390-1301 521-1431 520-1300 520-1431-2211 2081-1821 2081-1171 1951-910 1821-651 1692-260 1560-130 1691 130 1431 391 1301 390 1301 520 1170 520 1041 521 1171 390 910 390 911 130 650z"/><path class="str1" fill="url(#id78)" d="M32230 34255l1171 130 1301 260 1171 130 1170 261h1301l1171 130h2341l1171-130h1170l1171-130 1170-131h1301l1041-129 1301-261 1040-130-910 520-1041 391-1040 390-1041 390-1171 390-1170 261-1171 390-1171 130h-3772l-1301-260-1300-390-1301-521-1301-780-1301-911z"/><path class="str1" fill="url(#id72)" d="M39254 40369l-910 130-781 130-910 260-911 260-910 390-910 261-781 390-911 390-910 520-780 521-781 520-780 520-651 651-650 520-520 650-651 651 651-1821 780-1561 910-1301 1301-1301 1301-1040 1561-1041 1691-780 1691-781 1821-520 1821-651 1951-520 1821-390 1951-390 1821-391 1691-260 1561-390-780 260-1171 651-1301 910-1691 911-1691 1170-1691 911-1691 910-1561 650z"/><path class="str1" fill="url(#id40)" d="M35872 53897l-780-1691-130-1691 130-1691 650-1561 911-1431 1170-1431 1431-1301 1691-1171 1561-1300 1821-1041 1821-1041 1691-910 1561-910 1561-651 1301-780 910-521-1040 2212-1041 1821-1171 1431-1040 1300-1040 911-1171 910-1171 651-1171 780-1040 651-1171 780-1171 781-1040 910-1041 1041-1041 1431-1040 1561z"/><path class="str1" fill="url(#id33)" d="M54863 35296l-780 1301-911 1300-780 1171-780 1301-651 1171-650 1300-651 1171-650 1301-651 1300-520 1301-520 1171-390 1301-391 1301-390 1300-390 1431-260 1431-780-2862-391-2601v-2212l260-1951 390-1691 651-1561 910-1301 911-1040 1041-911 1040-910 1171-651 1040-650 911-520 910-520 781-651 520-520z"/></g></g></svg>