<svg xmlns="http://www.w3.org/2000/svg" width="50px" height="50px" viewBox="0 0 333334 318442" shape-rendering="geometricPrecision" text-rendering="geometricPrecision" image-rendering="optimizeQuality" fill-rule="evenodd" clip-rule="evenodd"><circle cx="101737" cy="101737" r="101737" fill="#4285f4"/><path d="M333333 111662c0 11422-9260 20678-20678 20678s-20678-9256-20678-20678c0-11421 9260-20678 20678-20678s20678 9257 20678 20678z" fill="#34a853"/><path d="M296113 162117c0 22839-18515 41356-41356 41356-22844 0-41357-18517-41357-41356 0-22841 18514-41357 41357-41357s41356 18517 41356 41357z" fill="#ea4335"/><path d="M304384 268816c0 27409-22216 49626-49628 49626-27411 0-49628-22217-49628-49626 0-27407 22216-49627 49628-49627s49628 22220 49628 49627z" fill="#fbbc05"/></svg>